<svg xmlns="http://www.w3.org/2000/svg" viewBox="0 0 442.59 127.55"><defs><style>.cls-1{fill:#e2e2e2;}</style></defs><g id="Capa_2" data-name="Capa 2"><g id="Layer_1" data-name="Layer 1"><path class="cls-1" d="M116.82,120.88v4H114.5V113.45h3.9a3.54,3.54,0,0,1,2.71,1.06,3.75,3.75,0,0,1,1,2.73,3.57,3.57,0,0,1-1,2.66,3.81,3.81,0,0,1-2.77,1Zm0-1.93h1.58a1.27,1.27,0,0,0,1-.43,1.93,1.93,0,0,0,.36-1.26,2.27,2.27,0,0,0-.37-1.37,1.2,1.2,0,0,0-1-.51h-1.61Z"/><path class="cls-1" d="M132.29,120.72h-1.15v4.18h-2.31V113.45h3.69a3.77,3.77,0,0,1,2.69.9,3.37,3.37,0,0,1,.94,2.56,3.34,3.34,0,0,1-1.66,3.2l2,4.68v.11H134Zm-1.15-1.93h1.32a1.19,1.19,0,0,0,1-.46,1.91,1.91,0,0,0,.35-1.23c0-1.15-.45-1.72-1.35-1.72h-1.35Z"/><path class="cls-1" d="M151,120.21a5.34,5.34,0,0,1-1.09,3.58,3.76,3.76,0,0,1-3,1.27,3.8,3.8,0,0,1-3-1.26,5.23,5.23,0,0,1-1.12-3.54v-2a5.61,5.61,0,0,1,1.09-3.68,4.13,4.13,0,0,1,6.05,0,5.49,5.49,0,0,1,1.12,3.65Zm-2.32-1.92a4.8,4.8,0,0,0-.44-2.31,1.63,1.63,0,0,0-2.73,0,4.47,4.47,0,0,0-.46,2.21v2a4.22,4.22,0,0,0,.45,2.21,1.51,1.51,0,0,0,1.39.71,1.48,1.48,0,0,0,1.34-.69,4.3,4.3,0,0,0,.45-2.16Z"/><path class="cls-1" d="M160.09,120.88v4h-2.32V113.45h3.91a3.57,3.57,0,0,1,2.71,1.06,3.79,3.79,0,0,1,1,2.73,3.57,3.57,0,0,1-1,2.66,3.81,3.81,0,0,1-2.77,1Zm0-1.93h1.59a1.25,1.25,0,0,0,1-.43,1.93,1.93,0,0,0,.36-1.26,2.27,2.27,0,0,0-.37-1.37,1.2,1.2,0,0,0-1-.51h-1.61Z"/><path class="cls-1" d="M174.51,124.9H172.2V113.45h2.31Z"/><path class="cls-1" d="M187.52,120h-3.6v3h4.26v1.92h-6.57V113.45h6.56v1.93h-4.25v2.7h3.6Z"/><path class="cls-1" d="M194.67,124.9V113.45h3a4.17,4.17,0,0,1,3.2,1.28,5,5,0,0,1,1.22,3.49v1.85a5,5,0,0,1-1.2,3.55,4.22,4.22,0,0,1-3.28,1.28Zm2.31-9.52V123h.69a2,2,0,0,0,1.63-.6,3.65,3.65,0,0,0,.49-2.11v-2a4.19,4.19,0,0,0-.44-2.24,1.82,1.82,0,0,0-1.53-.66Z"/><path class="cls-1" d="M214.22,122.56h-3.15l-.61,2.34H208l3.58-11.45h2.11l3.61,11.45h-2.47Zm-2.65-1.93h2.14l-1.07-4.08Z"/><path class="cls-1" d="M223.53,124.9V113.45h3a4.18,4.18,0,0,1,3.2,1.28,5,5,0,0,1,1.21,3.49v1.85a5,5,0,0,1-1.19,3.55,4.24,4.24,0,0,1-3.28,1.28Zm2.31-9.52V123h.7a1.93,1.93,0,0,0,1.62-.6,3.64,3.64,0,0,0,.5-2.11v-2a4.08,4.08,0,0,0-.45-2.24,1.81,1.81,0,0,0-1.52-.66Z"/><path class="cls-1" d="M243.7,120h-3.6v3h4.26v1.92h-6.57V113.45h6.56v1.93H240.1v2.7h3.6Z"/><path class="cls-1" d="M255.68,121.9a1.47,1.47,0,0,0-.35-1.06,4,4,0,0,0-1.31-.74,6.17,6.17,0,0,1-2.47-1.53,3.06,3.06,0,0,1-.76-2.07,2.9,2.9,0,0,1,1-2.33,4.24,4.24,0,0,1,4.49-.43,3.06,3.06,0,0,1,1.27,1.25,3.85,3.85,0,0,1,.44,1.84h-2.3a1.89,1.89,0,0,0-.35-1.22,1.17,1.17,0,0,0-1-.42,1.24,1.24,0,0,0-.95.36,1.37,1.37,0,0,0-.34,1,1.17,1.17,0,0,0,.38.85,4.18,4.18,0,0,0,1.34.79,5.69,5.69,0,0,1,2.43,1.49,3.31,3.31,0,0,1,.76,2.24,2.94,2.94,0,0,1-.95,2.34,3.77,3.77,0,0,1-2.59.84,4.5,4.5,0,0,1-2-.45A3.48,3.48,0,0,1,251,123.3a3.85,3.85,0,0,1-.51-2h2.32a2.24,2.24,0,0,0,.38,1.44,1.59,1.59,0,0,0,1.26.45C255.28,123.18,255.68,122.75,255.68,121.9Z"/><polygon class="cls-1" points="425.07 92.52 425.07 110.03 407.56 110.03 407.56 127.55 442.59 127.55 442.59 92.52 425.07 92.52"/><rect class="cls-1" x="390.04" y="75" width="17.52" height="17.52"/><rect class="cls-1" x="353.51" width="18.87" height="18.87"/><rect class="cls-1" x="353.51" y="29.21" width="19.02" height="63.3"/><polygon class="cls-1" points="154.91 29.89 135.42 60.94 155.24 92.52 193.29 92.52 193.29 74.73 166.53 74.73 157.87 60.94 166.62 47 193.29 47 193.29 29.21 155.33 29.21 154.91 29.89"/><path class="cls-1" d="M218.07,29.21V45.89h21.12l4.52,4.62v3.13H218.86L205.6,66.91V79.62l12.9,12.9h20.37l5.59-5.6,5.6,5.6h12.12V44.83L246.87,29.21ZM243.71,68v8.5h-21.3l-2.84-2.85v-.3L224.91,68Z"/><path class="cls-1" d="M80.68,29.21V45.89H101.8l4.53,4.62v3.13H81.48L68.21,66.91V79.62l12.91,12.9h20.36l5.6-5.6,5.59,5.6h12.12V44.83L109.48,29.21ZM106.33,68v8.5H85l-2.85-2.85v-.3L87.52,68Z"/><rect class="cls-1" x="278.04" y="48.23" width="19.02" height="44.29"/><polygon class="cls-1" points="328.13 29.21 318.63 29.21 297.06 29.21 297.06 48.23 318.63 48.23 318.63 92.52 337.64 92.52 337.64 29.21 328.13 29.21"/><polygon class="cls-1" points="46.07 29.21 32.54 66.39 19.02 29.21 0 29.21 23.04 92.52 42.05 92.52 65.09 29.21 46.07 29.21"/></g></g></svg>