<svg xmlns="http://www.w3.org/2000/svg" viewBox="0 0 1127.4 324.91"><defs><style>.cls-1{fill:#ea0029;}</style></defs><g id="Capa_2" data-name="Capa 2"><g id="Layer_1" data-name="Layer 1"><path d="M297.56,307.91v10.25h-5.89V289h9.94a9.13,9.13,0,0,1,6.9,2.69,9.63,9.63,0,0,1,2.57,7,9,9,0,0,1-2.54,6.77,9.66,9.66,0,0,1-7.05,2.49Zm0-4.91h4.05a3.18,3.18,0,0,0,2.6-1.11,4.83,4.83,0,0,0,.92-3.2,5.77,5.77,0,0,0-.94-3.48,3,3,0,0,0-2.52-1.31h-4.11Z"/><path d="M337,307.5h-2.93v10.66h-5.89V289h9.4a9.58,9.58,0,0,1,6.84,2.29,8.59,8.59,0,0,1,2.42,6.53q0,5.81-4.23,8.13l5.11,11.94v.28h-6.33Zm-2.93-4.91h3.35a3.08,3.08,0,0,0,2.65-1.17,5.12,5.12,0,0,0,.88-3.13c0-2.93-1.15-4.39-3.43-4.39h-3.45Z"/><path d="M384.53,306.2q0,5.88-2.77,9.12a9.61,9.61,0,0,1-7.7,3.25,9.72,9.72,0,0,1-7.72-3.22c-1.87-2.14-2.82-5.15-2.85-9v-5q0-6,2.79-9.38a10.54,10.54,0,0,1,15.41-.06q2.81,3.31,2.84,9.3Zm-5.91-4.89a12,12,0,0,0-1.12-5.87,4.15,4.15,0,0,0-6.95-.07,11.31,11.31,0,0,0-1.16,5.64v5.19a10.87,10.87,0,0,0,1.14,5.64,3.88,3.88,0,0,0,3.53,1.82,3.78,3.78,0,0,0,3.42-1.78,10.57,10.57,0,0,0,1.14-5.5Z"/><path d="M407.78,307.91v10.25h-5.89V289h9.94a9.1,9.1,0,0,1,6.9,2.69,9.64,9.64,0,0,1,2.58,7,9,9,0,0,1-2.55,6.77,9.63,9.63,0,0,1-7.05,2.49Zm0-4.91h4.05a3.22,3.22,0,0,0,2.61-1.11,4.88,4.88,0,0,0,.92-3.2,5.84,5.84,0,0,0-.94-3.48,3,3,0,0,0-2.53-1.31h-4.11Z"/><path d="M444.52,318.16h-5.89V289h5.89Z"/><path d="M477.66,305.54h-9.17v7.73h10.86v4.89H462.6V289h16.71v4.91H468.49v6.89h9.17Z"/><path d="M495.87,318.16V289h7.71a10.58,10.58,0,0,1,8.14,3.25c2,2.16,3.06,5.13,3.1,8.89v4.73q0,5.75-3,9a10.84,10.84,0,0,1-8.36,3.27Zm5.88-24.26v19.37h1.77c2,0,3.34-.51,4.15-1.55s1.22-2.82,1.26-5.36v-5.07q0-4.08-1.14-5.7a4.63,4.63,0,0,0-3.89-1.69Z"/><path d="M545.68,312.19h-8l-1.56,6h-6.24L539,289h5.39l9.18,29.17h-6.29Zm-6.75-4.91h5.45l-2.72-10.4Z"/><path d="M569.39,318.16V289h7.72a10.59,10.59,0,0,1,8.14,3.25c2,2.16,3.06,5.13,3.1,8.89v4.73q0,5.75-3,9a10.84,10.84,0,0,1-8.36,3.27Zm5.89-24.26v19.37h1.77c2,0,3.34-.51,4.14-1.55s1.23-2.82,1.27-5.36v-5.07q0-4.08-1.15-5.7a4.6,4.6,0,0,0-3.88-1.69Z"/><path d="M620.78,305.54H611.6v7.73h10.86v4.89H605.71V289h16.71v4.91H611.6v6.89h9.18Z"/><path d="M651.3,310.51a3.7,3.7,0,0,0-.91-2.7,10.86,10.86,0,0,0-3.32-1.89,15.41,15.41,0,0,1-6.31-3.9,7.77,7.77,0,0,1-1.93-5.28,7.43,7.43,0,0,1,2.62-5.92,10.88,10.88,0,0,1,11.43-1.1,7.84,7.84,0,0,1,3.23,3.2,9.52,9.52,0,0,1,1.14,4.69h-5.87a4.85,4.85,0,0,0-.87-3.12,3.07,3.07,0,0,0-2.52-1.07,3.12,3.12,0,0,0-2.4.91,3.42,3.42,0,0,0-.87,2.46,3,3,0,0,0,1,2.17,10.87,10.87,0,0,0,3.4,2,14.54,14.54,0,0,1,6.2,3.79,8.43,8.43,0,0,1,1.94,5.71,7.52,7.52,0,0,1-2.43,5.95,9.58,9.58,0,0,1-6.59,2.15,11.3,11.3,0,0,1-5.15-1.17,8.72,8.72,0,0,1-3.64-3.32,9.74,9.74,0,0,1-1.31-5.11H644a5.52,5.52,0,0,0,1,3.66,4,4,0,0,0,3.2,1.15Q651.3,313.78,651.3,310.51Z"/><polygon class="cls-1" points="1082.78 235.67 1082.78 280.29 1038.16 280.29 1038.16 324.91 1127.4 324.91 1127.4 235.67 1082.78 235.67"/><rect class="cls-1" x="993.54" y="191.05" width="44.62" height="44.62"/><rect x="900.47" width="48.07" height="48.07"/><rect x="900.47" y="74.42" width="48.44" height="161.25"/><polygon points="394.59 76.15 344.95 155.23 395.44 235.67 492.37 235.67 492.37 190.37 424.2 190.37 402.14 155.23 424.43 119.72 492.37 119.72 492.37 74.42 395.68 74.42 394.59 76.15"/><path d="M555.47,74.42v42.47h53.8l11.53,11.76v8H557.51l-33.8,33.8v32.38l32.88,32.86h51.87l14.25-14.25L637,235.67h30.88V114.2l-39-39.78Zm65.33,98.73v21.64H566.55l-7.26-7.25v-.77l13.62-13.62Z"/><path d="M205.51,74.42v42.47H259.3l11.54,11.76v8h-63.3l-33.8,33.8v32.38l32.88,32.86h51.87l14.26-14.25L287,235.67h30.87V114.2l-39-39.78Zm65.33,98.73v21.64H216.58l-7.25-7.25v-.77L223,173.15Z"/><rect x="708.25" y="122.86" width="48.44" height="112.81"/><polygon points="835.85 74.42 811.63 74.42 756.7 74.42 756.7 122.86 811.63 122.86 811.63 235.67 860.07 235.67 860.07 74.42 835.85 74.42"/><polygon points="117.36 74.42 82.9 169.11 48.44 74.42 0 74.42 58.68 235.67 107.12 235.67 165.8 74.42 117.36 74.42"/></g></g></svg>