<svg xmlns="http://www.w3.org/2000/svg" viewBox="0 0 747.69 325.11"><defs><style>.cls-1{fill:#ea0029;}</style></defs><g id="Capa_2" data-name="Capa 2"><g id="Layer_1" data-name="Layer 1"><polygon class="cls-1" points="12.74 6.37 12.74 12.74 6.37 12.74 6.37 19.11 19.11 19.11 19.11 6.37 12.74 6.37"/><rect class="cls-1" width="6.37" height="6.37"/><polygon class="cls-1" points="98.19 6.37 98.19 12.74 91.82 12.74 91.82 19.11 104.56 19.11 104.56 6.37 98.19 6.37"/><rect class="cls-1" x="85.45" width="6.37" height="6.37"/><polygon class="cls-1" points="183.63 6.37 183.63 12.74 177.26 12.74 177.26 19.11 190 19.11 190 6.37 183.63 6.37"/><rect class="cls-1" x="170.89" width="6.37" height="6.37"/><polygon class="cls-1" points="269.08 6.37 269.08 12.74 262.71 12.74 262.71 19.11 275.45 19.11 275.45 6.37 269.08 6.37"/><rect class="cls-1" x="256.34" width="6.37" height="6.37"/><polygon class="cls-1" points="354.52 6.37 354.52 12.74 348.15 12.74 348.15 19.11 360.89 19.11 360.89 6.37 354.52 6.37"/><rect class="cls-1" x="341.78" width="6.37" height="6.37"/><polygon class="cls-1" points="439.97 6.37 439.97 12.74 433.6 12.74 433.6 19.11 446.34 19.11 446.34 6.37 439.97 6.37"/><rect class="cls-1" x="427.23" width="6.37" height="6.37"/><polygon class="cls-1" points="525.42 6.37 525.42 12.74 519.05 12.74 519.05 19.11 531.79 19.11 531.79 6.37 525.42 6.37"/><rect class="cls-1" x="512.68" width="6.37" height="6.37"/><polygon class="cls-1" points="610.86 6.37 610.86 12.74 604.49 12.74 604.49 19.11 617.23 19.11 617.23 6.37 610.86 6.37"/><rect class="cls-1" x="598.12" width="6.37" height="6.37"/><polygon class="cls-1" points="696.31 6.37 696.31 12.74 689.94 12.74 689.94 19.11 702.68 19.11 702.68 6.37 696.31 6.37"/><rect class="cls-1" x="683.57" width="6.37" height="6.37"/><polygon class="cls-1" points="57.75 82.87 57.75 89.24 51.38 89.24 51.38 95.61 64.12 95.61 64.12 82.87 57.75 82.87"/><rect class="cls-1" x="45.01" y="76.5" width="6.37" height="6.37"/><polygon class="cls-1" points="143.2 82.87 143.2 89.24 136.83 89.24 136.83 95.61 149.57 95.61 149.57 82.87 143.2 82.87"/><rect class="cls-1" x="130.46" y="76.5" width="6.37" height="6.37"/><polygon class="cls-1" points="228.64 82.87 228.64 89.24 222.27 89.24 222.27 95.61 235.01 95.61 235.01 82.87 228.64 82.87"/><rect class="cls-1" x="215.9" y="76.5" width="6.37" height="6.37"/><polygon class="cls-1" points="314.09 82.87 314.09 89.24 307.72 89.24 307.72 95.61 320.46 95.61 320.46 82.87 314.09 82.87"/><rect class="cls-1" x="301.35" y="76.5" width="6.37" height="6.37"/><polygon class="cls-1" points="399.54 82.87 399.54 89.24 393.16 89.24 393.16 95.61 405.9 95.61 405.9 82.87 399.54 82.87"/><rect class="cls-1" x="386.79" y="76.5" width="6.37" height="6.37"/><polygon class="cls-1" points="484.98 82.87 484.98 89.24 478.61 89.24 478.61 95.61 491.35 95.61 491.35 82.87 484.98 82.87"/><rect class="cls-1" x="472.24" y="76.5" width="6.37" height="6.37"/><polygon class="cls-1" points="570.43 82.87 570.43 89.24 564.06 89.24 564.06 95.61 576.8 95.61 576.8 82.87 570.43 82.87"/><rect class="cls-1" x="557.69" y="76.5" width="6.37" height="6.37"/><polygon class="cls-1" points="655.87 82.87 655.87 89.24 649.5 89.24 649.5 95.61 662.24 95.61 662.24 82.87 655.87 82.87"/><rect class="cls-1" x="643.13" y="76.5" width="6.37" height="6.37"/><polygon class="cls-1" points="741.32 82.87 741.32 89.24 734.95 89.24 734.95 95.61 747.69 95.61 747.69 82.87 741.32 82.87"/><rect class="cls-1" x="728.58" y="76.5" width="6.37" height="6.37"/><polygon class="cls-1" points="12.74 159.37 12.74 165.74 6.37 165.74 6.37 172.11 19.11 172.11 19.11 159.37 12.74 159.37"/><rect class="cls-1" y="153" width="6.37" height="6.37"/><polygon class="cls-1" points="98.19 159.37 98.19 165.74 91.82 165.74 91.82 172.11 104.56 172.11 104.56 159.37 98.19 159.37"/><rect class="cls-1" x="85.45" y="153" width="6.37" height="6.37"/><polygon class="cls-1" points="183.63 159.37 183.63 165.74 177.26 165.74 177.26 172.11 190 172.11 190 159.37 183.63 159.37"/><rect class="cls-1" x="170.89" y="153" width="6.37" height="6.37"/><polygon class="cls-1" points="269.08 159.37 269.08 165.74 262.71 165.74 262.71 172.11 275.45 172.11 275.45 159.37 269.08 159.37"/><rect class="cls-1" x="256.34" y="153" width="6.37" height="6.37"/><polygon class="cls-1" points="354.52 159.37 354.52 165.74 348.15 165.74 348.15 172.11 360.89 172.11 360.89 159.37 354.52 159.37"/><rect class="cls-1" x="341.78" y="153" width="6.37" height="6.37"/><polygon class="cls-1" points="439.97 159.37 439.97 165.74 433.6 165.74 433.6 172.11 446.34 172.11 446.34 159.37 439.97 159.37"/><rect class="cls-1" x="427.23" y="153" width="6.37" height="6.37"/><polygon class="cls-1" points="525.42 159.37 525.42 165.74 519.05 165.74 519.05 172.11 531.79 172.11 531.79 159.37 525.42 159.37"/><rect class="cls-1" x="512.68" y="153" width="6.37" height="6.37"/><polygon class="cls-1" points="610.86 159.37 610.86 165.74 604.49 165.74 604.49 172.11 617.23 172.11 617.23 159.37 610.86 159.37"/><rect class="cls-1" x="598.12" y="153" width="6.37" height="6.37"/><polygon class="cls-1" points="696.31 159.37 696.31 165.74 689.94 165.74 689.94 172.11 702.68 172.11 702.68 159.37 696.31 159.37"/><rect class="cls-1" x="683.57" y="153" width="6.37" height="6.37"/><polygon class="cls-1" points="57.75 235.87 57.75 242.24 51.38 242.24 51.38 248.61 64.12 248.61 64.12 235.87 57.75 235.87"/><rect class="cls-1" x="45.01" y="229.5" width="6.37" height="6.37"/><polygon class="cls-1" points="143.2 235.87 143.2 242.24 136.83 242.24 136.83 248.61 149.57 248.61 149.57 235.87 143.2 235.87"/><rect class="cls-1" x="130.46" y="229.5" width="6.37" height="6.37"/><polygon class="cls-1" points="228.64 235.87 228.64 242.24 222.27 242.24 222.27 248.61 235.01 248.61 235.01 235.87 228.64 235.87"/><rect class="cls-1" x="215.9" y="229.5" width="6.37" height="6.37"/><polygon class="cls-1" points="314.09 235.87 314.09 242.24 307.72 242.24 307.72 248.61 320.46 248.61 320.46 235.87 314.09 235.87"/><rect class="cls-1" x="301.35" y="229.5" width="6.37" height="6.37"/><polygon class="cls-1" points="399.54 235.87 399.54 242.24 393.16 242.24 393.16 248.61 405.9 248.61 405.9 235.87 399.54 235.87"/><rect class="cls-1" x="386.79" y="229.5" width="6.37" height="6.37"/><polygon class="cls-1" points="484.98 235.87 484.98 242.24 478.61 242.24 478.61 248.61 491.35 248.61 491.35 235.87 484.98 235.87"/><rect class="cls-1" x="472.24" y="229.5" width="6.37" height="6.37"/><polygon class="cls-1" points="570.43 235.87 570.43 242.24 564.06 242.24 564.06 248.61 576.8 248.61 576.8 235.87 570.43 235.87"/><rect class="cls-1" x="557.69" y="229.5" width="6.37" height="6.37"/><polygon class="cls-1" points="655.87 235.87 655.87 242.24 649.5 242.24 649.5 248.61 662.24 248.61 662.24 235.87 655.87 235.87"/><rect class="cls-1" x="643.13" y="229.5" width="6.37" height="6.37"/><polygon class="cls-1" points="741.32 235.87 741.32 242.24 734.95 242.24 734.95 248.61 747.69 248.61 747.69 235.87 741.32 235.87"/><rect class="cls-1" x="728.58" y="229.5" width="6.37" height="6.37"/><polygon class="cls-1" points="12.74 312.37 12.74 318.74 6.37 318.74 6.37 325.11 19.11 325.11 19.11 312.37 12.74 312.37"/><rect class="cls-1" y="306" width="6.37" height="6.37"/><polygon class="cls-1" points="98.19 312.37 98.19 318.74 91.82 318.74 91.82 325.11 104.56 325.11 104.56 312.37 98.19 312.37"/><rect class="cls-1" x="85.45" y="306" width="6.37" height="6.37"/><polygon class="cls-1" points="183.63 312.37 183.63 318.74 177.26 318.74 177.26 325.11 190 325.11 190 312.37 183.63 312.37"/><rect class="cls-1" x="170.89" y="306" width="6.37" height="6.37"/><polygon class="cls-1" points="269.08 312.37 269.08 318.74 262.71 318.74 262.71 325.11 275.45 325.11 275.45 312.37 269.08 312.37"/><rect class="cls-1" x="256.34" y="306" width="6.37" height="6.37"/><polygon class="cls-1" points="354.52 312.37 354.52 318.74 348.15 318.74 348.15 325.11 360.89 325.11 360.89 312.37 354.52 312.37"/><rect class="cls-1" x="341.78" y="306" width="6.37" height="6.37"/><polygon class="cls-1" points="439.97 312.37 439.97 318.74 433.6 318.74 433.6 325.11 446.34 325.11 446.34 312.37 439.97 312.37"/><rect class="cls-1" x="427.23" y="306" width="6.37" height="6.37"/><polygon class="cls-1" points="525.42 312.37 525.42 318.74 519.05 318.74 519.05 325.11 531.79 325.11 531.79 312.37 525.42 312.37"/><rect class="cls-1" x="512.68" y="306" width="6.37" height="6.37"/><polygon class="cls-1" points="610.86 312.37 610.86 318.74 604.49 318.74 604.49 325.11 617.23 325.11 617.23 312.37 610.86 312.37"/><rect class="cls-1" x="598.12" y="306" width="6.37" height="6.37"/><polygon class="cls-1" points="696.31 312.37 696.31 318.74 689.94 318.74 689.94 325.11 702.68 325.11 702.68 312.37 696.31 312.37"/><rect class="cls-1" x="683.57" y="306" width="6.37" height="6.37"/></g></g></svg>